<svg xmlns="http://www.w3.org/2000/svg" width="60" height="60" viewBox="0 0 60 60"><defs><style>.a{fill:#0075bf;}.b{fill:#fff;}</style></defs><g transform="translate(30 30)"><g transform="translate(-30 -30)"><circle class="a" cx="30" cy="30" r="30"/><path class="b" d="M44,46l-8.5-3.3h-16A3.5,3.5,0,0,1,16,39V17.6A3.5,3.5,0,0,1,19.4,14H40.6A3.5,3.5,0,0,1,44,17.6V36h0ZM39.9,34a.9.9,0,0,0-1.3-.1A13.4,13.4,0,0,1,30,36.6a13.6,13.6,0,0,1-8.6-2.7.9.9,0,0,0-1.3.1,1.112,1.112,0,0,0,.1,1.4c.1.1,3.5,3.1,9.8,3.1a15.471,15.471,0,0,0,9.8-3.1,1.112,1.112,0,0,0,.1-1.4Z"/></g></g></svg>