<svg xmlns="http://www.w3.org/2000/svg" width="159.808" height="28.545" viewBox="0 0 159.808 28.545"><defs><style>.a{fill:#fff;}</style></defs><g transform="translate(79.904 14.272)"><g transform="translate(-79.904 -14.272)"><g transform="translate(34.252 0.002)"><path class="a" d="M189.49,19.7c-3.967,0-6.593,2.2-6.822,5.765h3.882c.143-1.456,1.2-2.112,2.94-2.112s2.854.856,2.854,2.626v.257h-2.968a8.23,8.23,0,0,0-5.451,1.627A5.023,5.023,0,0,0,182.1,31.83c0,3.111,2.34,5.138,5.937,5.138a7.278,7.278,0,0,0,4.281-1.284v1.284h3.8V25.979C196.14,22.04,193.657,19.7,189.49,19.7Zm2.854,10.989c-.029,1.941-1.713,2.654-4,2.654-1.57,0-2.369-.571-2.369-1.684,0-1.627,2.141-1.884,3.4-1.884h2.968Z" transform="translate(-164.373 -14.077)"/><path class="a" d="M383.69,19.7c-3.967,0-6.593,2.2-6.821,5.765h3.882c.143-1.456,1.2-2.112,2.94-2.112s2.854.856,2.854,2.626v.257h-2.968a8.23,8.23,0,0,0-5.452,1.627A5.023,5.023,0,0,0,376.3,31.83c0,3.111,2.34,5.138,5.937,5.138a7.278,7.278,0,0,0,4.281-1.284v1.284h3.8V25.979C390.34,22.04,387.857,19.7,383.69,19.7Zm2.854,10.989c-.029,1.941-1.712,2.654-4,2.654-1.57,0-2.369-.571-2.369-1.684,0-1.627,2.141-1.884,3.4-1.884h2.968Z" transform="translate(-303.145 -14.077)"/><path class="a" d="M493.249,10.132c1.627,0,2.911,1.655,3.054,3.225h0v9.248h4.4v-9.59a7.449,7.449,0,0,0-10.275-6.679l-.228.086V0h-4.4V22.605h4.4V12.958A3.025,3.025,0,0,1,493.249,10.132Z" transform="translate(-381.394)"/><path class="a" d="M254.241,37.325H250.73l-2.683-6.279-2.654,6.279h-3.539L238.8,20.6h3.91l1.513,10.874,2.255-6.508h3.168l2.226,6.479L253.385,20.6h3.91Z" transform="translate(-204.892 -14.72)"/><path class="a" d="M135.213,22.605H120v-.143L120.086,0h4.6V18.267H135.3Z" transform="translate(-120)"/><path class="a" d="M319.377,23.62c-2.455,0-4.11,1.8-4.11,4.481v.314c.029,2.711,1.627,4.481,4.11,4.481a4.387,4.387,0,0,0,4.367-4.6,4.437,4.437,0,0,0-4.367-4.652m-4.453,18.895H311.1V19.881h3.8v1.4A7.307,7.307,0,0,1,319.72,19.6c4.681,0,8.22,3.71,8.22,8.648a8.762,8.762,0,0,1-2.369,6.165,8.135,8.135,0,0,1-5.937,2.483,7.556,7.556,0,0,1-4.766-1.513Z" transform="translate(-256.557 -14.002)"/><path class="a" d="M433.568,9.7V5.3h4.4V9.7h5.052V13.12h-5.052v6.536a3.728,3.728,0,0,0,.571,2.426,2.485,2.485,0,0,0,1.912.628h2.569v3.768a33.761,33.761,0,0,1-3.653.171,5.481,5.481,0,0,1-4.424-1.684q-1.427-1.684-1.4-5.166v-6.65H430V9.724Z" transform="translate(-341.52 -3.787)"/><path class="a" d="M544.8,27.006a2.084,2.084,0,0,1,.6-1.513,2.027,2.027,0,0,1,1.541-.6,2.112,2.112,0,0,1,1.57.6,2.084,2.084,0,0,1,.6,1.513,2.2,2.2,0,0,1-3.711,1.513A2.055,2.055,0,0,1,544.8,27.006Zm.571,0a1.57,1.57,0,0,0,.428,1.142,1.713,1.713,0,0,0,2.312,0,1.6,1.6,0,0,0,.428-1.142,1.615,1.615,0,0,0-2.74-1.113A1.6,1.6,0,0,0,545.368,27.006Zm1.57.314h-.228v.771h-.6v-2.2h.913a.8.8,0,0,1,.571.2.685.685,0,0,1,.228.514.6.6,0,0,1-.342.6l.4.885h-.628Zm.029-.942h-.257v.428h.257l.171-.057a.2.2,0,0,0,.057-.171c0-.114-.076-.171-.228-.171Z" transform="translate(-423.552 -17.787)"/></g><path class="a" d="M13.125,19.233l-2.911-2.911a1.284,1.284,0,0,0-1.827,0L4.277,20.4,11.1,27.225a4.51,4.51,0,0,0,6.365,0l9.761-9.79a4.51,4.51,0,0,0,0-6.365L20.4,4.277l-6.736,6.764a.771.771,0,0,0,0,1.113l2.854,2.854a1.085,1.085,0,0,1-1.513,1.513L11.327,12.84a1.77,1.77,0,0,1,0-2.483l7.564-7.592L17.435,1.309a4.51,4.51,0,0,0-6.365,0L1.309,11.1a4.51,4.51,0,0,0,0,6.365l1.456,1.456L8.387,13.3a1.284,1.284,0,0,1,1.827,0l4.4,4.367a2.226,2.226,0,0,0,3.083.086,2.2,2.2,0,0,0,.057-3.14l-2.4-2.34a.771.771,0,0,1,0-1.113l.457-.457a.714.714,0,0,1,1,0l2.369,2.369a4.319,4.319,0,1,1-6.051,6.165Z" transform="translate(0.005 0.005)"/></g></g></svg>